<svg height="496pt" viewBox="0 -15 496 495" width="496pt" xmlns="http://www.w3.org/2000/svg"><path d="m134.382812 351.164062c15.898438 28.976563 42.328126 51.246094 74.058594 61.527344.65625.207032 1.3125.425782 1.964844.625 3.691406 1.128906 7.441406 2.128906 11.257812 2.925782-9.839843-15.078126-18.070312-38.679688-23.25-65.078126zm0 0"/><path d="m303.015625 292.140625c-.375 13.542969-1.9375 28.503906-4.457031 43.480469h70.21875c5.773437-14.832032 9.054687-30.914063 9.054687-47.792969 0-13.953125-2.214843-27.375-6.222656-40h-70.457031c1.609375 14.703125 2.3125 29.742187 1.863281 44.3125zm0 0"/><path d="m225.632812 158.796875c-.175781.03125-.359374.046875-.535156.078125-1.53125.28125-3.074218.519531-4.59375.855469-3.105468.679687-6.160156 1.488281-9.183594 2.394531-2.296874.695312-4.558593 1.496094-6.808593 2.3125-.976563.351562-1.945313.703125-2.902344 1.070312-2.441406.953126-4.855469 1.945313-7.226563 3.039063-.152343.074219-.285156.144531-.4375.21875-7.96875 3.71875-15.546874 8.238281-22.609374 13.476563-.382813.289062-.769532.578124-1.152344.867187-6.457032 4.894531-12.441406 10.414063-17.925782 16.453125-.746093.824219-1.503906 1.632812-2.226562 2.472656-1.4375 1.664063-2.824219 3.375-4.183594 5.121094-.976562 1.253906-1.917968 2.550781-2.847656 3.847656-1.136719 1.574219-2.296875 3.144532-3.367188 4.777344-1.824218 2.78125-3.542968 5.640625-5.160156 8.566406-.695312 1.265625-1.3125 2.578125-1.976562 3.855469-.6875 1.34375-1.3125 2.722656-1.953125 4.089844h67.960937c5.921875-29.746094 15.742188-56.914063 27.128906-73.496094zm0 0"/><path d="m495.96875.5-495.96875.078125.0234375 92.816406 495.9765625-.078125zm-141.199219 62.296875c-7.90625 0-14.144531-6.992187-14.144531-15.855469 0-8.855468 6.238281-15.855468 14.144531-15.855468 7.902344 0 14.140625 6.988281 14.140625 15.855468-.007812 8.398438-6.246094 15.855469-14.140625 15.855469zm46.160157 0c-7.90625 0-14.144532-6.992187-14.144532-15.855469 0-8.855468 6.238282-15.855468 14.144532-15.855468 7.902343 0 14.140624 6.988281 14.140624 15.855468-.007812 8.398438-6.238281 15.855469-14.140624 15.855469zm46.160156 0c-7.90625 0-14.144532-6.992187-14.144532-15.855469 0-8.855468 6.238282-15.855468 14.144532-15.855468 7.902344 0 14.140625 6.988281 14.140625 15.855468 0 8.398438-6.65625 15.855469-14.140625 15.855469zm0 0"/><path d="m287.585938 291.683594c.4375-14.214844-.355469-29.199219-2.058594-43.847656h-74.078125c-1.9375 12.398437-3.167969 25.265624-3.371094 38.078124-.429687 16.800782.867187 33.761719 3.3125 49.707032h71.648437c2.449219-13.96875 4.128907-28.816406 4.546876-43.9375zm0 0"/><path d="m365.3125 232.292969c-9.054688-19.664063-22.726562-36.386719-39.375-49.082031-.472656-.359376-.953125-.726563-1.433594-1.078126-2.199218-1.632812-4.433594-3.207031-6.726562-4.695312-.144532-.097656-.289063-.175781-.433594-.265625-4.449219-2.855469-9.097656-5.40625-13.863281-7.710937-.746094-.359376-1.472657-.746094-2.222657-1.082032-2.097656-.957031-4.234374-1.839844-6.378906-2.6875-1.34375-.527344-2.703125-1.023437-4.0625-1.503906-1.953125-.695312-3.90625-1.398438-5.886718-2-2.867188-.855469-5.769532-1.609375-8.714844-2.273438 10.066406 16.523438 18.242187 43.066407 22.847656 72.378907zm0 0"/><path d="m271.097656 416.765625c4.933594-.898437 9.789063-2.007813 14.511719-3.457031.648437-.199219 1.285156-.402344 1.925781-.609375 31.738282-10.269531 58.167969-32.550781 74.074219-61.535157h-65.992187c-5.5625 25.800782-14.015626 50.023438-24.519532 65.601563zm0 0"/><path d="m283.375 232.292969c-5.238281-31.808594-14.710938-59.816407-25.550781-71.402344-2.03125-2.175781-3.976563-3.511719-5.632813-3.964844-.632812-.027343-1.246094-.089843-1.878906-.097656-1.769531.289063-3.9375 1.574219-6.273438 3.824219-10.824218 10.421875-22.695312 38.28125-29.734374 71.640625zm0 0"/><path d="m.359375 464.5h495.625l.015625-355.566406h-495.625zm111.160156-226.40625c.066407-.234375-.007812-.480469.082031-.714844.46875-1.285156 1.046876-2.511718 1.550782-3.773437.632812-1.601563 1.273437-3.203125 1.960937-4.769531 1.070313-2.449219 2.238281-4.832032 3.4375-7.191407.777344-1.542969 1.503907-3.113281 2.335938-4.625 1.882812-3.414062 3.882812-6.734375 6-9.96875 1.296875-1.976562 2.714843-3.839843 4.097656-5.742187 1.03125-1.410156 2.039063-2.832032 3.113281-4.199219 1.605469-2.058594 3.285156-4.035156 5-6 .886719-1.015625 1.789063-2.023437 2.710938-3.015625 1.953125-2.113281 3.925781-4.195312 6-6.1875.390625-.375.800781-.726562 1.191406-1.09375 7.480469-7.054688 15.6875-13.304688 24.511719-18.65625.359375-.214844.710937-.441406 1.0625-.65625 2.832031-1.6875 5.722656-3.273438 8.683593-4.769531.527344-.269531 1.070313-.519531 1.597657-.78125 8.265625-4.050781 16.9375-7.320313 25.976562-9.738281 1.761719-.480469 3.511719-.96875 5.296875-1.375 2.039063-.464844 4.09375-.855469 6.167969-1.230469 2.527344-.464844 5.0625-.847657 7.625-1.175781 1.636719-.210938 3.269531-.441407 4.925781-.585938 4.351563-.40625 8.738282-.671875 13.160156-.671875.808594 0 1.601563.082031 2.398438.097656.394531-.007812.785156-.113281 1.179688-.089843.429687.015624.855468.144531 1.285156.191406 2.800781.097656 5.585937.226562 8.351562.480468 1.59375.144532 3.160156.367188 4.746094.570313 2.679688.335937 5.328125.742187 7.96875 1.230469 1.933594.351562 3.863281.71875 5.773438 1.152344 2.105468.480468 4.167968 1.054687 6.242187 1.625 5.535156 1.519531 10.957031 3.285156 16.214844 5.429687.046875.015625.097656.03125.144531.054687 2.757812 1.128907 5.429688 2.402344 8.101562 3.699219.9375.453125 1.882813.894531 2.808594 1.367188 2.679688 1.367187 5.304688 2.816406 7.890625 4.34375.6875.40625 1.367188.839843 2.046875 1.253906 11.902344 7.304687 22.664063 16.265625 32.007813 26.601563.246093.273437.488281.542968.734375.816406 23.152344 25.992187 37.378906 60.238281 37.378906 97.863281 0 20.648437-4.296875 40.289063-11.953125 58.121094-.054687.167969-.015625.359375-.089844.527343-15.015625 34.886719-42.527343 61.632813-75.902343 76.070313-.566407.25-1.128907.488281-1.703126.730469-3.847656 1.605468-7.746093 3.070312-11.738281 4.34375-.328125.105468-.636719.230468-.964843.335937-4.167969 1.296875-8.410157 2.390625-12.714844 3.304688-1.039063.222656-2.085938.382812-3.136719.582031-3.308594.632812-6.652344 1.152344-10.023437 1.554688-1.253907.148437-2.511719.300781-3.773438.421874-4.394531.402344-8.808594.679688-13.273438.679688-4.464843 0-8.886718-.269531-13.273437-.679688-1.261719-.121093-2.511719-.273437-3.765625-.421874-3.375-.402344-6.730469-.921876-10.039062-1.554688-1.042969-.199219-2.089844-.359375-3.121094-.582031-4.296875-.921875-8.542969-2.007813-12.710938-3.3125-.328125-.105469-.640625-.234375-.96875-.335938-3.984375-1.273437-7.898437-2.746093-11.738281-4.34375-.566406-.242187-1.125-.480469-1.6875-.722656-33.375-14.4375-60.894531-41.183594-75.902344-76.078125-.066406-.160156-.023437-.335938-.082031-.496094-7.664062-17.847656-11.964844-37.496094-11.964844-58.152344-.019531-17.503906 3.183594-34.199218 8.765625-49.757812zm0 0"/><path d="m195.777344 335.621094c-2.378906-16.503906-3.554688-33.601563-3.128906-50.023438.191406-12.417968 1.34375-25.1875 3.191406-37.761718h-71.457032c-4.015624 12.625-6.222656 26.046874-6.222656 40 0 16.871093 3.28125 32.960937 9.054688 47.792968zm0 0"/><path d="m214.222656 351.164062c6.144532 29.359376 15.960938 53.398438 25.511719 63.273438 2.671875 2.75 5.074219 4.109375 7.042969 4.191406h.070312c9.578125.007813 24.183594-28.519531 33.089844-67.464844zm0 0"/></svg>